<svg xmlns="http://www.w3.org/2000/svg" viewBox="0 0 64 64">
  <!-- 貓耳徽章：Cloudflare 橘底（fileshare 檔案分享） -->
  <path d="M10 27 L15 5 L31 19 Z" fill="#F6821F"/>
  <path d="M54 27 L49 5 L33 19 Z" fill="#F6821F"/>
  <rect x="6" y="14" width="52" height="46" rx="11" fill="#F6821F"/>
  <!-- 內耳 -->
  <path d="M14 21.5 L16.8 10 L25.5 18.5 Z" fill="#FFC48F"/>
  <path d="M50 21.5 L47.2 10 L38.5 18.5 Z" fill="#FFC48F"/>
  <!-- 檔案（白色、右上角折角） -->
  <path d="M22 19 H35 L45 29 V50 Q45 53 42 53 H22 Q19 53 19 50 V22 Q19 19 22 19 Z" fill="#FFFFFF"/>
  <path d="M35 19 L45 29 H37 Q35 29 35 27 Z" fill="#FFD9B8"/>
  <!-- 上傳箭頭 -->
  <path d="M32 45 V31" stroke="#F6821F" stroke-width="3.5" stroke-linecap="round" fill="none"/>
  <path d="M26 36 L32 30 L38 36" stroke="#F6821F" stroke-width="3.5" stroke-linecap="round" stroke-linejoin="round" fill="none"/>
</svg>
